<svg width="90" height="41" viewBox="0 0 90 41" fill="none" xmlns="http://www.w3.org/2000/svg">
<path fill-rule="evenodd" clip-rule="evenodd" d="M69 0H20.5H20C19.8021 0 19.6065 0.0095787 19.4135 0.0282977C8.59677 0.593124 0 9.54262 0 20.5C0 31.8218 9.17816 41 20.5 41C27.5596 41 33.7857 37.4315 37.473 32H52.527C56.2143 37.4315 62.4404 41 69.5 41C80.8218 41 90 31.8218 90 20.5C90 9.17816 80.8218 0 69.5 0C69.3916 0 69.2835 0.000840955 69.1755 0.00251669C69.1172 0.000842711 69.0587 0 69 0ZM15 9C15 8.44772 15.4477 8 16 8H20C20.5523 8 21 8.44771 21 9V15H27C27.5523 15 28 15.4477 28 16V20C28 20.5523 27.5523 21 27 21H21V27C21 27.5523 20.5523 28 20 28H16C15.4477 28 15 27.5523 15 27V21H9C8.44772 21 8 20.5523 8 20V16C8 15.4477 8.44771 15 9 15H15V9ZM78 16.5C78 18.9853 75.9853 21 73.5 21C71.0147 21 69 18.9853 69 16.5C69 14.0147 71.0147 12 73.5 12C75.9853 12 78 14.0147 78 16.5ZM65 27C66.6569 27 68 25.6569 68 24C68 22.3431 66.6569 21 65 21C63.3431 21 62 22.3431 62 24C62 25.6569 63.3431 27 65 27Z" fill="url(#paint0_linear_123_38)"/>
<defs>
<linearGradient id="paint0_linear_123_38" x1="-1.56575e-06" y1="-12.5" x2="110" y2="56.5" gradientUnits="userSpaceOnUse">
<stop stop-color="#FFA800"/>
<stop offset="0.41169" stop-color="#FA00FF"/>
<stop offset="0.524086" stop-color="#FA00FF"/>
<stop offset="0.794105" stop-color="#FF0000"/>
</linearGradient>
</defs>
</svg>
