<svg width="72" height="72" viewBox="0 0 72 72" fill="none" xmlns="http://www.w3.org/2000/svg">
<path fill-rule="evenodd" clip-rule="evenodd" d="M0 6C0 2.68629 2.68629 0 6 0H66C69.3137 0 72 2.68629 72 6V66C72 69.3137 69.3137 72 66 72H6C2.68629 72 0 69.3137 0 66V6ZM28 51V31H21C17.6863 31 15 28.3137 15 25V21C15 17.6863 17.6863 15 21 15H34H38H51C54.3137 15 57 17.6863 57 21V25C57 28.3137 54.3137 31 51 31H44V51C44 54.3137 41.3137 57 38 57H34C30.6863 57 28 54.3137 28 51Z" fill="url(#paint0_linear_121_32)"/>
<defs>
<linearGradient id="paint0_linear_121_32" x1="-10.5" y1="-10.5" x2="89" y2="85" gradientUnits="userSpaceOnUse">
<stop offset="0.0677083" stop-color="#FFA800"/>
<stop offset="0.511979" stop-color="#FA00FF"/>
<stop offset="1" stop-color="#FF0000"/>
</linearGradient>
</defs>
</svg>
