<svg width="100" height="69" viewBox="0 0 100 69" fill="none" xmlns="http://www.w3.org/2000/svg">
<path fill-rule="evenodd" clip-rule="evenodd" d="M0 9C0 4.02944 4.02944 0 9 0H91C95.9706 0 100 4.02944 100 9V60C100 64.9706 95.9706 69 91 69H9C4.02943 69 0 64.9706 0 60V9ZM91 21.5C91 27.299 86.299 32 80.5 32C74.701 32 70 27.299 70 21.5C70 15.701 74.701 11 80.5 11C86.299 11 91 15.701 91 21.5ZM15 12C13.8954 12 13 12.8954 13 14V22C13 23.1046 13.8954 24 15 24H55C56.1046 24 57 23.1046 57 22V14C57 12.8954 56.1046 12 55 12H15ZM13 31C13 29.8954 13.8954 29 15 29H40C41.1046 29 42 29.8954 42 31V39C42 40.1046 41.1046 41 40 41H15C13.8954 41 13 40.1046 13 39V31ZM15 46C13.8954 46 13 46.8954 13 48V56C13 57.1046 13.8954 58 15 58H24C25.1046 58 26 57.1046 26 56V48C26 46.8954 25.1046 46 24 46H15Z" fill="url(#paint0_linear_129_86)"/>
<path fill-rule="evenodd" clip-rule="evenodd" d="M0 9C0 4.02944 4.02944 0 9 0H91C95.9706 0 100 4.02944 100 9V60C100 64.9706 95.9706 69 91 69H9C4.02943 69 0 64.9706 0 60V9ZM91 21.5C91 27.299 86.299 32 80.5 32C74.701 32 70 27.299 70 21.5C70 15.701 74.701 11 80.5 11C86.299 11 91 15.701 91 21.5ZM15 12C13.8954 12 13 12.8954 13 14V22C13 23.1046 13.8954 24 15 24H55C56.1046 24 57 23.1046 57 22V14C57 12.8954 56.1046 12 55 12H15ZM13 31C13 29.8954 13.8954 29 15 29H40C41.1046 29 42 29.8954 42 31V39C42 40.1046 41.1046 41 40 41H15C13.8954 41 13 40.1046 13 39V31ZM15 46C13.8954 46 13 46.8954 13 48V56C13 57.1046 13.8954 58 15 58H24C25.1046 58 26 57.1046 26 56V48C26 46.8954 25.1046 46 24 46H15Z" fill="url(#paint1_linear_129_86)"/>
<defs>
<linearGradient id="paint0_linear_129_86" x1="32" y1="-3" x2="96.5" y2="64.5" gradientUnits="userSpaceOnUse">
<stop stop-color="#D9D9D9"/>
<stop offset="0.31223" stop-color="#D9D9D9"/>
<stop offset="1" stop-color="#D9D9D9" stop-opacity="0"/>
</linearGradient>
<linearGradient id="paint1_linear_129_86" x1="-14.5833" y1="-10.0625" x2="75.8796" y2="115.773" gradientUnits="userSpaceOnUse">
<stop offset="0.0677083" stop-color="#FFA800"/>
<stop offset="0.511979" stop-color="#FA00FF"/>
<stop offset="1" stop-color="#FF0000"/>
</linearGradient>
</defs>
</svg>
